LX_20210320_001.mat
nRows=10
nColumns=19

name LX_20210320_001.mat
datacolumns 19
datarows 10
range 25.9502142232 26.0402149745
endheader
time	ground_force_vx	ground_force_vy	ground_force_vz	ground_force_px	ground_force_py	ground_force_pz	1_ground_force_vx	1_ground_force_vy	1_ground_force_vz	1_ground_force_px	1_ground_force_py	1_ground_force_pz	ground_torque_x	ground_torque_y	ground_torque_z	1_ground_torque_x	1_ground_torque_y	1_ground_torque_z	
       25.9502142232	        3.0619228460	        8.9334909393	       -0.2999679728	       -0.2075751827	       -0.0186500000	        0.1700000000	      -12.9758013118	      508.2630788789	       20.4994966692	       -0.0855426749	       -0.0186500000	       -0.0983965644	        3.2820365192	        0.0000000000	        8.7730858956	     -239.4375153575	      -24.0674290561	      464.6802175774	
       25.9602143467	        0.8131261371	        8.1075593260	        0.0302131431	       -0.2060342275	       -0.0186500000	        0.1700000000	       -9.9878163740	      506.8391035668	       23.8326393023	       -0.0987383698	       -0.0186500000	       -0.0968559756	        2.8639884256	        0.0000000000	        5.7112767023	     -239.4970795698	      -26.0470522656	      456.7337295023	
       25.9702144302	       -2.8459716917	        7.5598909017	       -2.4604567394	       -0.2040489028	       -0.0186500000	        0.1700000000	       -3.4752372986	      508.8402496790	       26.9158107223	       -0.1062474380	       -0.0186500000	       -0.0974659419	        2.8197294505	        0.0000000000	        6.0640425997	     -240.0870433983	      -27.9062535783	      454.8129707505	
       25.9802145137	        5.9709942216	        7.2982506778	        1.3771126141	       -0.2019642243	       -0.0186500000	        0.1700000000	       -4.6281443307	      508.9846772390	       24.9670526362	       -0.1145722220	       -0.0186500000	       -0.0983740645	        2.7433611812	        0.0000000000	        8.2351402339	     -239.7221988323	      -25.8024303635	      450.6867294537	
       25.9902145571	       -4.4614921778	        7.2927176660	       -0.4165092236	       -0.2000647017	       -0.0186500000	        0.1700000000	       -1.1156193530	      512.6836172474	       23.1931428503	       -0.1213753260	       -0.0186500000	       -0.1002427597	        2.0800816802	        0.0000000000	        1.6032883285	     -240.5347576162	      -21.2932776036	      450.5254305706	
       26.0002146806	        3.0366765020	        7.4868769384	        0.0296557581	       -0.1985515406	       -0.0186500000	        0.1700000000	        3.0185485176	      517.7257456698	       26.6290139620	       -0.1316804613	       -0.0186500000	       -0.0994456053	        3.2597804801	        0.0000000000	        8.4794826199	     -243.2641340199	      -22.8779193005	      449.6805178848	
       26.0102147240	        3.0050594626	        7.8109429598	       -0.3624536981	       -0.1975350029	       -0.0186500000	        0.1700000000	        3.6357919695	      518.4794166444	       27.1024588116	       -0.1400372039	       -0.0186500000	       -0.0987007344	        2.9010449101	        0.0000000000	       10.9234598867	     -243.9978815463	      -23.1997496052	      446.0104769598	
       26.0202148476	       -3.4965724280	        8.1950010220	       -1.1048918326	       -0.1970397112	       -0.0186500000	        0.1700000000	        9.2448654976	      524.8934168362	       21.9529762127	       -0.1457888136	       -0.0186500000	       -0.1020801796	        2.5678608840	        0.0000000000	        4.4895320829	     -245.3233115078	      -16.1687666852	      448.5898712653	
       26.0302148910	        4.8498156556	        8.5785827034	        1.0682546937	       -0.1970195371	       -0.0186500000	        0.1700000000	       10.6041050838	      526.9199616684	       20.8861776833	       -0.1585915376	       -0.0186500000	       -0.1029775938	        2.8361771984	        0.0000000000	        6.3422243412	     -245.8144519831	      -12.5574987350	      443.5938184756	
       26.0402149745	       -1.4963830437	        8.9175366762	       -1.5881782225	       -0.1973782152	       -0.0186500000	        0.1700000000	       17.4867073603	      528.4397539064	       26.3493376242	       -0.1721636041	       -0.0186500000	       -0.1024530623	        2.8369108173	        0.0000000000	        7.3019996507	     -246.7193870866	      -16.4754884193	      437.8022902807	
